<mxfile host="app.diagrams.net" agent="Mozilla/5.0 (Windows NT 10.0; Win64; x64) AppleWebKit/537.36 (KHTML, like Gecko) Chrome/138.0.0.0 YaBrowser/25.8.0.0 Safari/537.36" version="28.2.8">
  <diagram name="Страница — 1" id="p1sYkSzKcON784PMW9z_">
    <mxGraphModel dx="1188" dy="640" grid="1" gridSize="10" guides="1" tooltips="1" connect="1" arrows="1" fold="1" page="1" pageScale="1" pageWidth="827" pageHeight="1169" math="0" shadow="0">
      <root>
        <mxCell id="0" />
        <mxCell id="1" parent="0" />
        <mxCell id="PbFl-11jWjxNesODJ52S-1" value="" style="rounded=0;whiteSpace=wrap;html=1;fillColor=#d5e8d4;strokeColor=#82b366;container=0;" vertex="1" parent="1">
          <mxGeometry x="320" y="200" width="200" height="160" as="geometry" />
        </mxCell>
        <mxCell id="PbFl-11jWjxNesODJ52S-2" style="edgeStyle=orthogonalEdgeStyle;rounded=0;orthogonalLoop=1;jettySize=auto;html=1;startArrow=none;startFill=0;endArrow=none;endFill=0;" edge="1" parent="1">
          <mxGeometry relative="1" as="geometry">
            <mxPoint x="420" y="220.01930501930497" as="targetPoint" />
            <mxPoint x="430" y="220" as="sourcePoint" />
          </mxGeometry>
        </mxCell>
        <mxCell id="PbFl-11jWjxNesODJ52S-3" value="IN1" style="rounded=0;whiteSpace=wrap;html=1;container=0;" vertex="1" parent="1">
          <mxGeometry x="320" y="210" width="40" height="20" as="geometry" />
        </mxCell>
        <mxCell id="PbFl-11jWjxNesODJ52S-4" value="OUT" style="rounded=0;whiteSpace=wrap;html=1;container=0;" vertex="1" parent="1">
          <mxGeometry x="480" y="270" width="40" height="20" as="geometry" />
        </mxCell>
        <mxCell id="PbFl-11jWjxNesODJ52S-5" value="3-канальный&lt;br&gt;контроллер&lt;div&gt;идеального&amp;nbsp;диода&lt;/div&gt;" style="text;html=1;align=center;verticalAlign=middle;resizable=0;points=[];autosize=1;strokeColor=none;fillColor=none;container=0;" vertex="1" parent="1">
          <mxGeometry x="390" y="300" width="130" height="60" as="geometry" />
        </mxCell>
        <mxCell id="PbFl-11jWjxNesODJ52S-6" value="" style="pointerEvents=1;fillColor=strokeColor;verticalLabelPosition=bottom;shadow=0;dashed=0;align=center;html=1;verticalAlign=top;shape=mxgraph.electrical.diodes.diode;strokeColor=#FF0000;container=0;" vertex="1" parent="1">
          <mxGeometry x="380" y="212.5" width="40" height="15" as="geometry" />
        </mxCell>
        <mxCell id="PbFl-11jWjxNesODJ52S-7" style="edgeStyle=orthogonalEdgeStyle;rounded=0;orthogonalLoop=1;jettySize=auto;html=1;exitX=1;exitY=0.5;exitDx=0;exitDy=0;entryX=0;entryY=0.5;entryDx=0;entryDy=0;entryPerimeter=0;endArrow=none;endFill=0;" edge="1" parent="1" source="PbFl-11jWjxNesODJ52S-3" target="PbFl-11jWjxNesODJ52S-6">
          <mxGeometry relative="1" as="geometry" />
        </mxCell>
        <mxCell id="PbFl-11jWjxNesODJ52S-8" value="IN2" style="rounded=0;whiteSpace=wrap;html=1;container=0;" vertex="1" parent="1">
          <mxGeometry x="320" y="240" width="40" height="20" as="geometry" />
        </mxCell>
        <mxCell id="PbFl-11jWjxNesODJ52S-9" style="edgeStyle=orthogonalEdgeStyle;rounded=0;orthogonalLoop=1;jettySize=auto;html=1;exitX=1;exitY=0.5;exitDx=0;exitDy=0;exitPerimeter=0;endArrow=oval;endFill=1;" edge="1" parent="1" source="PbFl-11jWjxNesODJ52S-10">
          <mxGeometry relative="1" as="geometry">
            <mxPoint x="430" y="220" as="targetPoint" />
          </mxGeometry>
        </mxCell>
        <mxCell id="PbFl-11jWjxNesODJ52S-10" value="" style="pointerEvents=1;fillColor=strokeColor;verticalLabelPosition=bottom;shadow=0;dashed=0;align=center;html=1;verticalAlign=top;shape=mxgraph.electrical.diodes.diode;strokeColor=#FF0000;container=0;" vertex="1" parent="1">
          <mxGeometry x="380" y="242.5" width="40" height="15" as="geometry" />
        </mxCell>
        <mxCell id="PbFl-11jWjxNesODJ52S-11" style="edgeStyle=orthogonalEdgeStyle;rounded=0;orthogonalLoop=1;jettySize=auto;html=1;exitX=1;exitY=0.5;exitDx=0;exitDy=0;entryX=0;entryY=0.5;entryDx=0;entryDy=0;entryPerimeter=0;endArrow=none;endFill=0;" edge="1" parent="1" source="PbFl-11jWjxNesODJ52S-8" target="PbFl-11jWjxNesODJ52S-10">
          <mxGeometry relative="1" as="geometry" />
        </mxCell>
        <mxCell id="PbFl-11jWjxNesODJ52S-12" value="IN3" style="rounded=0;whiteSpace=wrap;html=1;container=0;" vertex="1" parent="1">
          <mxGeometry x="320" y="270" width="40" height="20" as="geometry" />
        </mxCell>
        <mxCell id="PbFl-11jWjxNesODJ52S-13" style="edgeStyle=orthogonalEdgeStyle;rounded=0;orthogonalLoop=1;jettySize=auto;html=1;exitX=1;exitY=0.5;exitDx=0;exitDy=0;exitPerimeter=0;endArrow=oval;endFill=1;" edge="1" parent="1" source="PbFl-11jWjxNesODJ52S-14">
          <mxGeometry relative="1" as="geometry">
            <mxPoint x="430" y="250" as="targetPoint" />
          </mxGeometry>
        </mxCell>
        <mxCell id="PbFl-11jWjxNesODJ52S-14" value="" style="pointerEvents=1;fillColor=strokeColor;verticalLabelPosition=bottom;shadow=0;dashed=0;align=center;html=1;verticalAlign=top;shape=mxgraph.electrical.diodes.diode;strokeColor=#FF0000;container=0;" vertex="1" parent="1">
          <mxGeometry x="380" y="272.5" width="40" height="15" as="geometry" />
        </mxCell>
        <mxCell id="PbFl-11jWjxNesODJ52S-15" style="edgeStyle=orthogonalEdgeStyle;rounded=0;orthogonalLoop=1;jettySize=auto;html=1;exitX=1;exitY=0.5;exitDx=0;exitDy=0;entryX=0;entryY=0.5;entryDx=0;entryDy=0;entryPerimeter=0;endArrow=none;endFill=0;" edge="1" parent="1" source="PbFl-11jWjxNesODJ52S-12" target="PbFl-11jWjxNesODJ52S-14">
          <mxGeometry relative="1" as="geometry" />
        </mxCell>
        <mxCell id="PbFl-11jWjxNesODJ52S-16" value="" style="edgeStyle=none;orthogonalLoop=1;jettySize=auto;html=1;rounded=0;entryX=0;entryY=0.5;entryDx=0;entryDy=0;startArrow=oval;startFill=1;" edge="1" parent="1" target="PbFl-11jWjxNesODJ52S-4">
          <mxGeometry width="100" relative="1" as="geometry">
            <mxPoint x="430" y="280" as="sourcePoint" />
            <mxPoint x="500" y="280" as="targetPoint" />
            <Array as="points" />
          </mxGeometry>
        </mxCell>
      </root>
    </mxGraphModel>
  </diagram>
</mxfile>
